<?xml version="1.0" encoding="utf-8"?>
<!-- Generator: Adobe Illustrator 21.1.0, SVG Export Plug-In . SVG Version: 6.00 Build 0)  -->
<svg version="1.1" id="Layer_1" xmlns="http://www.w3.org/2000/svg" xmlns:xlink="http://www.w3.org/1999/xlink" x="0px" y="0px"
	 viewBox="0 0 1152 936.9" style="enable-background:new 0 0 1152 936.9;" xml:space="preserve">
<style type="text/css">
	.st0{enable-background:new    ;}
	.st1{fill:#FFFFFF;}
</style>
<title>Logo</title>
<g class="st0">
	<path class="st1" d="M463,237.8h24.5l25.8,128.8H494l-6-34.3h-25.8l-6,34.3H437L463,237.8z M485.5,317.6l-7.6-43.2
		c-1.1-6.3-1.6-12.3-2.4-19H475c-0.7,6.7-1.5,12.7-2.5,19l-7.6,43.2H485.5z"/>
</g>
<g class="st0">
	<path class="st1" d="M520.5,329.4V273c0-25,12.5-38.3,34.8-38.3c21.4,0,33.2,10.7,33.2,34.3v11.2l-20,4.2v-14.7
		c0-12.9-4.4-19.2-13.6-19.2c-9.4,0-14.7,5.8-14.7,20.5v60.4c0,14.7,5.3,22.3,15.1,22.3c8.9,0,13.4-6.3,13.4-18.1v-18.1l19.6,4.4
		v13.6c0,22.3-12.3,34.3-33.4,34.3C532.8,369.6,520.5,356.2,520.5,329.4z"/>
</g>
<g class="st0">
	<path class="st1" d="M601,330.8v-57.3c0-25.2,12.9-38.8,35.7-38.8c22.9,0,35.7,13.6,35.7,38.8v57.3c0,25.2-12.9,38.8-35.7,38.8
		C613.9,369.6,601,355.8,601,330.8z M636.8,354c10.2,0,16-7.6,16-21.2v-61.3c0-13.6-5.8-21.2-16-21.2c-10.3,0-16,7.6-16,21.2v61.3
		C620.8,346.2,626.4,354,636.8,354z"/>
	<path class="st1" d="M707.3,237.8v98.3c0,11.1,5.1,17.2,14.3,17.2c9.1,0,14.3-6.2,14.3-17.2v-98.3h18.9v99.4
		c0,19.6-11.8,32.5-33.2,32.5c-21.6,0-33.4-12.9-33.4-32.5v-99.4H707.3z"/>
</g>
<g class="st0">
	<path class="st1" d="M767.7,335.4v-10.7l19.4-3.6v13.1c0,13.2,4.4,20.1,13.4,20.1c8.5,0,12.7-6,12.7-15.6v-4.7
		c0-10.2-1.3-15.2-11.4-21.8l-15.4-9.8c-12.9-8.3-17.2-18-17.2-31.2v-6.5c0-18.7,12.3-29.9,31.6-29.9c20.3,0,31.7,8.9,31.7,31.6v9.6
		l-19,3.6v-11.4c0-12-4-18.1-12.7-18.1c-8,0-12.2,5.6-12.2,13.4v6.2c0,8.3,3.3,13.8,10.7,18.5l15.8,10.2
		c14.5,9.3,17.8,19.2,17.8,33.2v6.9c0,19.8-10.9,31.4-32.3,31.4C779.3,369.6,767.7,357.5,767.7,335.4z"/>
</g>
<g class="st0">
	<path class="st1" d="M837.2,237.8h69.1v16.7h-25v112.1h-18.9V254.5h-25.2V237.8z"/>
	<path class="st1" d="M917.3,366.5V237.8h19v128.8H917.3z"/>
</g>
<g class="st0">
	<path class="st1" d="M952.9,329.4V273c0-25,12.5-38.3,34.8-38.3c21.4,0,33.2,10.7,33.2,34.3v11.2l-20,4.2v-14.7
		c0-12.9-4.4-19.2-13.6-19.2c-9.4,0-14.7,5.8-14.7,20.5v60.4c0,14.7,5.3,22.3,15.1,22.3c8.9,0,13.4-6.3,13.4-18.1v-18.1l19.6,4.4
		v13.6c0,22.3-12.3,34.3-33.4,34.3C965.2,369.6,952.9,356.2,952.9,329.4z"/>
</g>
<g class="st0">
	<path class="st1" d="M512.5,547.9h-19v-58.6h-29v58.6h-19V419.2h19v55.3h29v-55.3h19V547.9z"/>
	<path class="st1" d="M590,532.3v15.6h-55V419.2h53.7v15.6H554v39h31.7v15.6H554v43H590z"/>
</g>
<g class="st0">
	<path class="st1" d="M607.2,419.2h30.3c23.6,0,33.2,12,33.2,33v7.3c0,16-5.8,26.1-15.8,30.5l19.2,58H654l-16.9-54.1h-10.9v54.1h-19
		V419.2z M636.2,480.6c10.7,0,15.1-6.7,15.1-20.7v-7.4c0-13.8-4.4-19.4-15.1-19.4h-10v47.5H636.2z"/>
</g>
<g class="st0">
	<path class="st1" d="M689.9,547.9V419.2h19v128.8H689.9z"/>
</g>
<g class="st0">
	<path class="st1" d="M722.5,419.2h69.1v16.7h-25v112.1h-18.9V435.8h-25.2V419.2z"/>
</g>
<g class="st0">
	<path class="st1" d="M813.2,419.2h24.5l25.8,128.8h-19.2l-6-34.3h-25.8l-6,34.3h-19.2L813.2,419.2z M835.7,499l-7.6-43.2
		c-1.1-6.3-1.6-12.3-2.4-19h-0.5c-0.7,6.7-1.5,12.7-2.5,19L815,499H835.7z"/>
</g>
<g class="st0">
	<path class="st1" d="M873.6,512v-55c0-26.1,12.3-41,35.2-41c21.6,0,32.8,12.7,32.8,32.8v9.6l-19.8,3.8v-13.1c0-11.4-4.2-18-13.4-18
		c-10,0-15.1,8.2-15.1,23v58.2c0,14.1,5.1,22.9,15.1,22.9c11.2,0,15.2-10.3,15.2-23.6v-17.6h-17.6V479h35.6v68.9h-13.8l-1.3-16.9
		c-3.3,12.3-11.2,20-23.6,20C884.1,551,873.6,536.7,873.6,512z"/>
</g>
<g class="st0">
	<path class="st1" d="M1017.6,532.3v15.6h-55V419.2h53.7v15.6h-34.6v39h31.7v15.6h-31.7v43H1017.6z"/>
</g>
<g class="st0">
	<path class="st1" d="M441.6,692.1v-56.4c0-25,12.5-38.3,34.8-38.3c21.4,0,33.2,10.7,33.2,34.3V643l-20,4.2v-14.7
		c0-12.9-4.4-19.2-13.6-19.2c-9.4,0-14.7,5.8-14.7,20.5v60.4c0,14.7,5.3,22.3,15.1,22.3c8.9,0,13.4-6.3,13.4-18.1v-18.1l19.6,4.4
		v13.6c0,22.3-12.3,34.3-33.4,34.3C453.9,732.4,441.6,719,441.6,692.1z"/>
	<path class="st1" d="M524.3,693.6v-57.3c0-25.2,12.9-38.8,35.7-38.8c22.9,0,35.7,13.6,35.7,38.8v57.3c0,25.2-12.9,38.8-35.7,38.8
		C537.2,732.4,524.3,718.6,524.3,693.6z M560,716.8c10.2,0,16-7.6,16-21.2v-61.3c0-13.6-5.8-21.2-16-21.2c-10.3,0-16,7.6-16,21.2
		v61.3C544.1,709,549.7,716.8,560,716.8z"/>
	<path class="st1" d="M614.4,600.5h19v111.5h32.6v17.2h-51.7V600.5z"/>
	<path class="st1" d="M680.5,600.5h19v111.5h32.6v17.2h-51.7V600.5z"/>
</g>
<g class="st0">
	<path class="st1" d="M800,713.7v15.6h-55V600.5h53.7v15.6h-34.6v39h31.7v15.6h-31.7v43H800z"/>
</g>
<g class="st0">
	<path class="st1" d="M811.1,692.1v-56.4c0-25,12.5-38.3,34.8-38.3c21.4,0,33.2,10.7,33.2,34.3V643l-20,4.2v-14.7
		c0-12.9-4.4-19.2-13.6-19.2c-9.4,0-14.7,5.8-14.7,20.5v60.4c0,14.7,5.3,22.3,15.1,22.3c8.9,0,13.4-6.3,13.4-18.1v-18.1l19.6,4.4
		v13.6c0,22.3-12.3,34.3-33.4,34.3C823.4,732.4,811.1,719,811.1,692.1z"/>
</g>
<g class="st0">
	<path class="st1" d="M884.7,600.5h69.1v16.7h-25v112.1h-18.9V617.2h-25.2V600.5z"/>
</g>
<g class="st0">
	<path class="st1" d="M966.3,729.3V600.5h19v128.8H966.3z"/>
</g>
<g class="st0">
	<path class="st1" d="M998.1,600.5h19.8l14.9,91.2c1.3,6.9,1.8,12.5,2.4,18.1h0.7c0.5-5.6,1.1-11.2,2.4-18.1l14.7-91.2h19.8
		l-25,128.8h-24.3L998.1,600.5z"/>
</g>
<g class="st0">
	<path class="st1" d="M1140.4,713.7v15.6h-55V600.5h53.7v15.6h-34.6v39h31.7v15.6h-31.7v43H1140.4z"/>
</g>
<path class="st1" d="M41.8,483.3L41.8,483.3V324.9C19.1,394.6,7,408.2,7,483.7l0,0c0,75.4,12.1,88.8,34.7,158.4L41.8,483.3z"/>
<path class="st1" d="M140.9,483.3L140.9,483.3c0-113.2,0-168-0.3-216.5C104.8,309.1,80,383.1,80,483.7l0,0
	c0,100.5,24.8,174.2,60.6,216.4C140.9,651.6,140.9,596.6,140.9,483.3"/>
<path class="st1" d="M251.3,483.3L251.3,483.3c0-142.6,0-219.6,0-242.8c-56.8,20.6-91.1,117.4-91.1,243.2l0,0
	c0,125.7,34.4,222.3,91,242.8C251.3,703.2,251.3,626,251.3,483.3"/>
<path class="st1" d="M362.2,483.3L362.2,483.3c0-134.6,0-211.3,0-248.8c-87.5-6.9-121.8,98.9-121.8,249.1l0,0
	c0,150.2,34.4,255.7,121.8,248.7C362.2,694.9,362.2,618,362.2,483.3"/>
</svg>
